<svg width="220" height="25" viewBox="0 0 220 25" fill="none" xmlns="http://www.w3.org/2000/svg">
<path fill-rule="evenodd" clip-rule="evenodd" d="M20.7071 5.20711C21.0976 4.81658 21.0976 4.18342 20.7071 3.79289C20.3166 3.40237 19.6834 3.40237 19.2929 3.79289L13.348 9.73779L9.07342 3.90865C8.88504 3.65177 8.58555 3.5 8.267 3.5H4C3.62317 3.5 3.27833 3.71184 3.108 4.04798C2.93766 4.38412 2.97075 4.78747 3.19359 5.09135L9.45538 13.6304L3.29289 19.7929C2.90237 20.1834 2.90237 20.8166 3.29289 21.2071C3.68342 21.5976 4.31658 21.5976 4.70711 21.2071L10.652 15.2622L14.9266 21.0914C15.115 21.3482 15.4145 21.5 15.733 21.5H20C20.3768 21.5 20.7217 21.2882 20.892 20.952C21.0623 20.6159 21.0293 20.2125 20.8064 19.9086L14.5446 11.3696L20.7071 5.20711ZM12.3703 11.7865C12.4012 11.838 12.4371 11.8872 12.4781 11.9336L18.0266 19.5H16.2398L5.97338 5.5H7.76026L12.3703 11.7865Z" fill="#FBFBFB"/>
<path d="M67 2.5H64C62.6739 2.5 61.4021 3.02678 60.4645 3.96447C59.5268 4.90215 59 6.17392 59 7.5V10.5H56V14.5H59V22.5H63V14.5H66L67 10.5H63V7.5C63 7.23478 63.1054 6.98043 63.2929 6.79289C63.4804 6.60536 63.7348 6.5 64 6.5H67V2.5Z" stroke="#FBFBFB" stroke-width="2" stroke-linecap="round" stroke-linejoin="round"/>
<path d="M120 4.50002C120 4.50002 119.3 6.60002 118 7.90002C119.6 17.9 108.6 25.2 100 19.5C102.2 19.6 104.4 18.9 106 17.5C101 16 98.5 10.1 101 5.50002C103.2 8.10002 106.6 9.60002 110 9.50002C109.1 5.30002 114 2.90002 117 5.70002C118.1 5.70002 120 4.50002 120 4.50002Z" stroke="#FBFBFB" stroke-width="2" stroke-linecap="round" stroke-linejoin="round"/>
<path d="M164 2.5H154C151.239 2.5 149 4.73858 149 7.5V17.5C149 20.2614 151.239 22.5 154 22.5H164C166.761 22.5 169 20.2614 169 17.5V7.5C169 4.73858 166.761 2.5 164 2.5Z" stroke="#FBFBFB" stroke-width="2" stroke-linecap="round" stroke-linejoin="round"/>
<path d="M163 11.8701C163.123 12.7023 162.981 13.5523 162.594 14.2991C162.206 15.0459 161.593 15.6515 160.842 16.0297C160.09 16.408 159.238 16.5397 158.408 16.406C157.577 16.2723 156.81 15.8801 156.215 15.2852C155.62 14.6903 155.228 13.9229 155.094 13.0923C154.96 12.2616 155.092 11.41 155.47 10.6584C155.849 9.90691 156.454 9.2938 157.201 8.9063C157.948 8.5188 158.798 8.37665 159.63 8.50006C160.479 8.62594 161.265 9.02152 161.872 9.62836C162.479 10.2352 162.874 11.0211 163 11.8701Z" stroke="#FBFBFB" stroke-width="2" stroke-linecap="round" stroke-linejoin="round"/>
<path d="M164.5 7H164.51" stroke="#FBFBFB" stroke-width="2" stroke-linecap="round" stroke-linejoin="round"/>
<path d="M198.5 17.5C197.801 14.2033 197.801 10.7967 198.5 7.5C198.592 7.16521 198.769 6.86007 199.015 6.61461C199.26 6.36914 199.565 6.19179 199.9 6.1C205.263 5.21146 210.737 5.21146 216.1 6.1C216.435 6.19179 216.74 6.36914 216.985 6.61461C217.231 6.86007 217.408 7.16521 217.5 7.5C218.199 10.7967 218.199 14.2033 217.5 17.5C217.408 17.8348 217.231 18.1399 216.985 18.3854C216.74 18.6309 216.435 18.8082 216.1 18.9C210.737 19.7887 205.263 19.7887 199.9 18.9C199.565 18.8082 199.26 18.6309 199.015 18.3854C198.769 18.1399 198.592 17.8348 198.5 17.5Z" stroke="#FBFBFB" stroke-width="2" stroke-linecap="round" stroke-linejoin="round"/>
<path d="M206 15.5L211 12.5L206 9.5V15.5Z" stroke="#FBFBFB" stroke-width="2" stroke-linecap="round" stroke-linejoin="round"/>
</svg>
