<svg width="49" height="54" viewBox="0 0 49 54" fill="none" xmlns="http://www.w3.org/2000/svg">
<path d="M0 16.22C0 7.49036 7.07679 0.413574 15.8065 0.413574H33.1935C41.9232 0.413574 49 7.49036 49 16.22H0Z" fill="#FBFBFB"/>
<ellipse cx="5.92743" cy="7.3588" rx="1.18548" ry="0.718475" fill="#1F1B1B"/>
<ellipse cx="18.5726" cy="9.27475" rx="1.18548" ry="0.718475" fill="#1F1B1B"/>
<ellipse cx="12.25" cy="5.4429" rx="1.18548" ry="0.718475" fill="#1F1B1B"/>
<ellipse cx="16.2016" cy="2.09" rx="1.18548" ry="0.718475" fill="#1F1B1B"/>
<ellipse cx="21.7339" cy="5.4429" rx="1.18548" ry="0.718475" fill="#1F1B1B"/>
<ellipse cx="27.2661" cy="8.79575" rx="1.18548" ry="0.718475" fill="#1F1B1B"/>
<ellipse cx="23.3145" cy="12.6277" rx="1.18548" ry="0.718475" fill="#1F1B1B"/>
<ellipse cx="36.75" cy="11.6696" rx="1.18548" ry="0.718475" fill="#1F1B1B"/>
<ellipse cx="45.4435" cy="11.6696" rx="1.18548" ry="0.718475" fill="#1F1B1B"/>
<ellipse cx="41.4919" cy="8.31674" rx="1.18548" ry="0.718475" fill="#1F1B1B"/>
<ellipse cx="37.5403" cy="4.9639" rx="1.18548" ry="0.718475" fill="#1F1B1B"/>
<ellipse cx="28.0565" cy="1.61105" rx="1.18548" ry="0.718475" fill="#1F1B1B"/>
<ellipse cx="28.0565" cy="4.9639" rx="1.18548" ry="0.718475" fill="#1F1B1B"/>
<ellipse cx="34.379" cy="8.31674" rx="1.18548" ry="0.718475" fill="#1F1B1B"/>
<ellipse cx="9.87903" cy="11.1907" rx="1.18548" ry="0.718475" fill="#1F1B1B"/>
<ellipse cx="1.18548" cy="13.5856" rx="1.18548" ry="0.718475" fill="#1F1B1B"/>
<ellipse cx="14.621" cy="14.0646" rx="1.18548" ry="0.718475" fill="#1F1B1B"/>
<ellipse cx="28.0565" cy="14.5436" rx="1.18548" ry="0.718475" fill="#1F1B1B"/>
<ellipse cx="41.4919" cy="15.0226" rx="1.18548" ry="0.718475" fill="#1F1B1B"/>
<path d="M11.5066 23.1732C11.5066 23.2411 11.502 23.2905 11.4928 23.3214C11.4032 24.1426 11.0374 24.7214 10.3953 25.058C9.91057 25.3111 9.2283 25.4377 8.34844 25.4377C8.21261 25.4377 7.64302 25.413 6.63968 25.3636C6.4668 25.3543 6.16116 25.3265 5.72278 25.2802C5.34923 25.2401 5.06675 25.22 4.87535 25.22C4.48636 25.22 4.18536 25.2957 3.97234 25.4469L4.00476 24.2615C4.10355 24.2121 4.22549 24.1874 4.37059 24.1874C4.58978 24.1874 4.83367 24.2507 5.10226 24.3772C4.6824 23.1547 4.46166 21.3626 4.44005 19.0009C4.43696 18.7879 4.34744 18.6474 4.17147 18.5795C3.99241 18.5517 3.78402 18.5069 3.54631 18.4452C3.47839 18.4081 3.44443 18.2769 3.44443 18.0516C3.44443 17.9126 3.45369 17.8262 3.47222 17.7922C3.74389 17.8848 4.38757 17.9836 5.40326 18.0886C6.43438 18.1967 7.28645 18.2507 7.95946 18.2507C8.72508 18.2507 9.65433 18.2275 10.7472 18.1812C10.5774 18.4992 10.4323 18.8434 10.3119 19.2139C10.2255 19.5257 10.139 19.836 10.0526 20.1447C10.0094 20.1478 9.90594 20.157 9.74231 20.1725C9.61265 20.1879 9.51077 20.1956 9.43668 20.1956C9.37494 20.1956 9.34098 20.1756 9.3348 20.1354C9.31011 19.697 9.2391 19.3883 9.12179 19.2093C8.9489 18.9376 8.46576 18.8017 7.67235 18.8017C7.6106 18.8017 7.30034 18.8141 6.74156 18.8388C6.55941 19.2648 6.46834 19.7835 6.46834 20.3947C6.46834 20.5059 6.47297 20.6587 6.48223 20.8532C6.49149 21.0477 6.49613 21.1851 6.49613 21.2653C6.74001 21.2468 6.94994 21.2283 7.12591 21.2098C7.55195 21.1604 7.77268 21.1125 7.78812 21.0662C7.81282 20.9859 7.82516 20.9041 7.82516 20.8208C7.82516 20.6819 7.77577 20.5537 7.67698 20.4364C7.59362 20.3531 7.51027 20.2697 7.42692 20.1864C7.56893 20.1092 7.70322 20.0428 7.82979 19.9872C8.13543 19.8576 8.38395 19.7897 8.57535 19.7835C8.6371 19.9101 8.66797 20.0845 8.66797 20.3068C8.66797 20.3747 8.66334 20.4766 8.65408 20.6124C8.64482 20.7482 8.64018 20.8486 8.64018 20.9134C8.64018 21.1388 8.70347 21.5185 8.83005 22.0526C8.8424 22.1081 8.8424 22.1436 8.83005 22.1591C8.82079 22.1683 8.80226 22.1714 8.77448 22.1683C8.51515 22.1313 8.0706 22.1004 7.44081 22.0757C7.15061 22.0634 6.86196 22.0526 6.57485 22.0433C6.63351 23.1115 6.8635 23.8447 7.26484 24.2429C7.61369 24.5918 8.19871 24.7662 9.01991 24.7662C9.27923 24.7662 9.52312 24.7153 9.75158 24.6134C9.95224 24.5239 10.0526 24.4451 10.0526 24.3772C10.0526 24.3433 10.0186 24.3263 9.9507 24.3263C9.89513 24.3263 9.82104 24.3309 9.72842 24.3402C9.63581 24.3464 9.55708 24.3494 9.49225 24.3494C8.89025 24.3494 8.49509 24.1179 8.30677 23.6548C8.27589 23.5776 8.26046 23.4989 8.26046 23.4187C8.26046 23.1779 8.40864 22.9633 8.70502 22.775C9.01991 22.5743 9.46292 22.4307 10.0341 22.3443C10.2038 22.3196 10.352 22.3073 10.4786 22.3073C11.164 22.3073 11.5066 22.5959 11.5066 23.1732ZM18.7816 20.4318L18.6798 21.4737C18.584 21.5046 18.4976 21.52 18.4204 21.52C18.2321 21.52 18.0175 21.4537 17.7767 21.3209C18.2892 22.2285 18.5455 23.2118 18.5455 24.2707C18.5455 24.53 18.5269 24.7832 18.4899 25.0302C18.3479 25.9532 18.0515 26.5954 17.6008 26.9566C17.076 27.3795 16.1807 27.591 14.9149 27.591C13.822 27.591 12.99 27.3996 12.4189 27.0168C12.0793 26.7852 11.8586 26.512 11.7567 26.1971C11.6795 25.9594 11.6409 25.7634 11.6409 25.609C11.6409 25.1398 12.0299 24.8295 12.8079 24.6782C13.1351 24.6165 13.4547 24.5856 13.7665 24.5856C14.211 24.5856 14.5707 24.6489 14.8455 24.7755C15.111 24.9021 15.2437 25.0657 15.2437 25.2663C15.2437 25.7232 14.9381 26.0551 14.3268 26.262C13.9193 26.4009 13.6785 26.4873 13.6044 26.5213C13.4593 26.5892 13.3868 26.6618 13.3868 26.7389C13.3868 26.8532 13.6306 26.9103 14.1184 26.9103C14.7266 26.9103 15.2468 26.8022 15.679 26.5861C16.0402 26.4071 16.3026 25.9718 16.4662 25.2802C16.5743 24.8172 16.6283 24.317 16.6283 23.7799C16.6283 23.6533 16.6221 23.5576 16.6098 23.4927C16.5079 23.7335 16.2578 23.9265 15.8596 24.0716C15.5046 24.1982 15.1125 24.2615 14.6834 24.2615C14.0351 24.2615 13.5226 24.0315 13.1459 23.5715C12.8681 23.235 12.689 22.8136 12.6088 22.3073C12.5378 21.872 12.5023 21.5494 12.5023 21.3394C12.5023 20.9381 12.6011 20.6433 12.7986 20.4549C13.024 20.2358 13.4068 20.1262 13.9471 20.1262C14.2002 20.1262 14.5198 20.1555 14.9057 20.2141C15.5663 20.3098 16.0587 20.4997 16.3829 20.7837C16.4137 20.8084 16.4292 20.8007 16.4292 20.7606C16.4292 20.668 16.369 20.3932 16.2486 19.9363C16.937 20.3531 17.5946 20.5615 18.2213 20.5615C18.4714 20.5615 18.6581 20.5182 18.7816 20.4318ZM16.8552 22.5573C16.8552 22.3567 16.6376 22.1529 16.2023 21.9461C15.8133 21.7639 15.415 21.6728 15.0075 21.6728C14.6124 21.6728 14.2851 21.7099 14.0258 21.784C13.7325 21.8673 13.5859 21.9846 13.5859 22.1359C13.5859 22.3181 13.802 22.4987 14.2342 22.6777C14.6695 22.8537 15.1264 22.9417 15.6049 22.9417C15.9815 22.9417 16.2841 22.9062 16.5125 22.8352C16.741 22.7611 16.8552 22.6685 16.8552 22.5573ZM25.9131 20.4318L25.8112 21.4737C25.7155 21.5046 25.629 21.52 25.5519 21.52C25.3635 21.52 25.149 21.4537 24.9082 21.3209C25.4206 22.2285 25.6769 23.2118 25.6769 24.2707C25.6769 24.53 25.6584 24.7832 25.6213 25.0302C25.4793 25.9532 25.1829 26.5954 24.7322 26.9566C24.2074 27.3795 23.3121 27.591 22.0463 27.591C20.9535 27.591 20.1215 27.3996 19.5503 27.0168C19.2107 26.7852 18.99 26.512 18.8881 26.1971C18.811 25.9594 18.7724 25.7634 18.7724 25.609C18.7724 25.1398 19.1614 24.8295 19.9393 24.6782C20.2666 24.6165 20.5861 24.5856 20.8979 24.5856C21.3425 24.5856 21.7021 24.6489 21.9769 24.7755C22.2424 24.9021 22.3751 25.0657 22.3751 25.2663C22.3751 25.7232 22.0695 26.0551 21.4582 26.262C21.0507 26.4009 20.8099 26.4873 20.7358 26.5213C20.5907 26.5892 20.5182 26.6618 20.5182 26.7389C20.5182 26.8532 20.7621 26.9103 21.2498 26.9103C21.858 26.9103 22.3782 26.8022 22.8104 26.5861C23.1716 26.4071 23.434 25.9718 23.5977 25.2802C23.7057 24.8172 23.7597 24.317 23.7597 23.7799C23.7597 23.6533 23.7536 23.5576 23.7412 23.4927C23.6393 23.7335 23.3893 23.9265 22.991 24.0716C22.636 24.1982 22.2439 24.2615 21.8148 24.2615C21.1665 24.2615 20.654 24.0315 20.2774 23.5715C19.9995 23.235 19.8205 22.8136 19.7402 22.3073C19.6692 21.872 19.6337 21.5494 19.6337 21.3394C19.6337 20.9381 19.7325 20.6433 19.9301 20.4549C20.1554 20.2358 20.5382 20.1262 21.0785 20.1262C21.3317 20.1262 21.6512 20.1555 22.0371 20.2141C22.6977 20.3098 23.1901 20.4997 23.5143 20.7837C23.5452 20.8084 23.5606 20.8007 23.5606 20.7606C23.5606 20.668 23.5004 20.3932 23.38 19.9363C24.0685 20.3531 24.726 20.5615 25.3527 20.5615C25.6028 20.5615 25.7896 20.5182 25.9131 20.4318ZM23.9866 22.5573C23.9866 22.3567 23.769 22.1529 23.3337 21.9461C22.9447 21.7639 22.5465 21.6728 22.139 21.6728C21.7438 21.6728 21.4166 21.7099 21.1572 21.784C20.8639 21.8673 20.7173 21.9846 20.7173 22.1359C20.7173 22.3181 20.9334 22.4987 21.3656 22.6777C21.8009 22.8537 22.2578 22.9417 22.7363 22.9417C23.113 22.9417 23.4155 22.9062 23.644 22.8352C23.8724 22.7611 23.9866 22.6685 23.9866 22.5573ZM34.3272 20.8856L34.2763 21.4274C33.8626 21.2916 33.6202 21.2252 33.5492 21.2283C33.435 21.2345 33.3424 21.4274 33.2714 21.8071C33.2189 22.0881 33.1556 22.6283 33.0815 23.4279C33.0043 24.2707 32.9194 24.8465 32.8268 25.1552C32.6323 25.7943 32.3638 26.2465 32.0211 26.512C31.5765 26.8516 30.8834 27.0214 29.9418 27.0214C28.5001 27.0214 27.4613 26.8069 26.8253 26.3777C26.6247 26.2419 26.4533 26.032 26.3113 25.7479C26.1724 25.4732 26.1029 25.2154 26.1029 24.9746C26.1029 24.6597 26.265 24.4189 26.5892 24.2522C26.8948 24.0947 27.3146 24.016 27.8487 24.016C28.3982 24.016 28.8598 24.1179 29.2333 24.3217C29.5729 24.5069 29.7427 24.7153 29.7427 24.9468C29.7427 25.4161 29.4139 25.7449 28.7564 25.9332C28.7008 25.9486 28.4662 25.9965 28.0525 26.0767C27.8271 26.123 27.7144 26.1755 27.7144 26.2342C27.7144 26.3669 28.0556 26.4333 28.7378 26.4333C29.2503 26.4333 29.6146 26.3762 29.8307 26.262C30.1919 26.0706 30.4728 25.7649 30.6735 25.3451C30.8186 25.0456 30.8912 24.7925 30.8912 24.5856C30.8819 24.5115 30.3555 24.0716 29.3121 23.2658C28.2439 22.4385 27.5385 21.9353 27.1958 21.7562C27.0785 21.7562 26.7296 21.9121 26.1492 22.2239C26.0998 22.2517 26.0751 22.2393 26.0751 22.1869C26.0751 22.0572 26.0767 21.8889 26.0798 21.6821C26.0829 21.4753 26.0844 21.3394 26.0844 21.2746V21.0106C27.6187 20.7606 28.795 20.4194 29.6131 19.9872C29.6902 20.1262 29.8106 20.3345 29.9743 20.6124C29.8199 20.6525 29.5606 20.6988 29.1963 20.7513C29.1963 21.0847 29.4973 21.5432 30.0993 22.1267C30.6087 22.6175 31.0409 22.9525 31.3959 23.1315C31.5657 22.8784 31.7849 22.4585 32.0535 21.872C32.3159 21.2977 32.4471 20.9566 32.4471 20.8486C31.7988 20.8516 31.328 20.8455 31.0347 20.83C31.081 20.6355 31.1659 20.3222 31.2894 19.89C32.1909 19.9239 33.2035 20.2558 34.3272 20.8856ZM36.9946 18.5795C36.9946 18.7925 36.9344 19.0333 36.814 19.3019C36.6936 19.5705 36.5747 19.7418 36.4574 19.8159C36.2845 19.8715 36.1579 19.8992 36.0777 19.8992C36.0252 19.8992 35.9989 19.8807 35.9989 19.8437C35.9989 19.8313 36.019 19.7927 36.0591 19.7279C36.1579 19.555 36.2073 19.4161 36.2073 19.3111C36.2073 19.1722 36.1039 19.1027 35.8971 19.1027C35.826 19.1027 35.7026 19.1151 35.5266 19.1398C35.4371 19.1521 35.3738 19.1583 35.3367 19.1583C35.0898 19.1583 34.8798 19.0796 34.7069 18.9221C34.5371 18.7616 34.4522 18.5594 34.4522 18.3155C34.4522 18.1087 34.5773 17.9435 34.8273 17.82C35.0589 17.7027 35.3491 17.644 35.6979 17.644C36.1054 17.644 36.4265 17.732 36.6611 17.908C36.8834 18.0778 36.9946 18.3016 36.9946 18.5795ZM44.2417 23.5437C44.2417 23.6703 44.2325 23.7953 44.214 23.9188C44.1244 24.5084 43.6876 24.9669 42.9034 25.2941C42.178 25.5998 41.2626 25.7526 40.1574 25.7526C39.401 25.7526 38.7836 25.6476 38.3051 25.4377C37.8945 25.2586 37.6444 25.0379 37.5549 24.7755C37.4931 24.5872 37.4623 24.4282 37.4623 24.2985C37.4623 23.8509 37.8883 23.5699 38.7404 23.4557C39.0275 23.4187 39.293 23.4001 39.5369 23.4001C39.9814 23.4001 40.3334 23.4557 40.5927 23.5668C40.852 23.678 40.9817 23.8308 40.9817 24.0253C40.9817 24.229 40.8875 24.4096 40.6992 24.5671C40.4646 24.7647 40.1095 24.8974 39.6341 24.9653C39.3501 25.0055 39.2081 25.0657 39.2081 25.1459C39.2081 25.2324 39.4581 25.2756 39.9583 25.2756C40.1528 25.2756 40.3256 25.2663 40.4769 25.2478C40.9122 25.1953 41.2317 25.1197 41.4355 25.0209C41.7442 24.8758 41.8924 24.6582 41.88 24.368C41.8399 23.4264 41.3753 22.9556 40.4862 22.9556C40.3966 22.9556 40.2145 22.9664 39.9397 22.988C39.6681 23.0096 39.4751 23.0204 39.3609 23.0204C38.4286 23.0204 37.9624 22.7009 37.9624 22.0618C37.9624 21.9106 37.9763 21.7747 38.0041 21.6543C38.1059 21.1635 38.3853 20.7714 38.8422 20.4781C39.3671 20.1416 40.0771 19.9733 40.9724 19.9733C41.8399 19.9733 42.4805 20.0521 42.8942 20.2095C43.2554 20.3453 43.4962 20.5645 43.6166 20.8671C43.6938 21.0554 43.7324 21.2036 43.7324 21.3116C43.7324 21.6605 43.3619 21.8596 42.621 21.909C42.482 21.9152 42.3308 21.9183 42.1672 21.9183C41.1854 21.9183 40.6946 21.7485 40.6946 21.4089C40.6946 21.1125 40.8659 20.8902 41.2086 20.7421C41.2518 20.7235 41.508 20.6572 41.9773 20.5429C42.0329 20.5306 42.0606 20.509 42.0606 20.4781C42.0606 20.37 41.8214 20.316 41.3429 20.316C40.4321 20.316 39.9768 20.5877 39.9768 21.131C39.9768 21.2576 40.0015 21.3935 40.0509 21.5385C40.1651 21.8658 40.3442 22.0942 40.588 22.2239C40.7887 22.332 41.065 22.386 41.417 22.386C41.5374 22.386 41.7319 22.3783 42.0004 22.3628C42.269 22.3443 42.4697 22.335 42.6024 22.335C43.1211 22.335 43.5101 22.4138 43.7694 22.5712C44.0843 22.7595 44.2417 23.0837 44.2417 23.5437ZM11.4094 33.0984C11.4094 33.4441 11.3338 33.8084 11.1825 34.1912C10.6731 35.4663 9.83802 36.1038 8.67723 36.1038C8.2018 36.1038 7.76033 35.9957 7.35282 35.7796C7.12437 35.6561 6.84807 35.4554 6.52391 35.1776C6.72767 36.1501 7.10122 37.1673 7.64456 38.2293C6.37881 38.4824 5.08528 38.7541 3.76396 39.0443C3.73308 38.9332 3.71765 38.8128 3.71765 38.6831C3.71765 38.5226 3.74698 38.4315 3.80563 38.4099C3.91677 38.379 4.08039 38.3281 4.2965 38.2571C4.52804 38.1706 4.64381 38.0302 4.64381 37.8357C4.64381 37.8079 4.64226 37.7786 4.63918 37.7477C4.46012 36.3893 4.37059 35.298 4.37059 34.4737C4.37059 33.6062 4.45394 32.765 4.62065 31.9499C4.41998 32.0209 4.23321 32.0564 4.06033 32.0564C3.83805 32.0564 3.65127 32.0086 3.5 31.9129L3.58335 30.7459C4.44777 31.1812 5.31836 31.3989 6.19512 31.3989C6.47297 31.3989 6.92062 31.368 7.53805 31.3063C8.15858 31.2445 8.62784 31.2136 8.94582 31.2136C9.7948 31.2136 10.4308 31.402 10.8537 31.7786C11.2242 32.1058 11.4094 32.5458 11.4094 33.0984ZM10.3489 33.3253C10.3489 33.0937 10.1622 32.9101 9.78862 32.7742C9.42742 32.6415 8.95045 32.5751 8.35771 32.5751C7.70631 32.5751 7.1182 32.6986 6.59337 32.9456C6.08707 33.1802 5.83392 33.4302 5.83392 33.6957C5.83392 33.8625 6.05774 34.0091 6.50539 34.1357C6.91598 34.253 7.34356 34.3116 7.78812 34.3116C8.38086 34.3116 8.9489 34.2128 9.49225 34.0153C10.0634 33.8084 10.3489 33.5784 10.3489 33.3253ZM14.9751 38.5257C14.5645 38.3466 14.157 38.2571 13.7526 38.2571C13.2123 38.2571 12.6427 38.4022 12.0438 38.6924C12.0006 38.714 11.9728 38.7217 11.9605 38.7155C11.945 38.7063 11.9435 38.6769 11.9558 38.6275C12.3633 36.9852 12.5671 35.6391 12.5671 34.5895C12.5671 33.6726 12.4498 32.7927 12.2152 31.9499C12.1781 31.8234 12.0917 31.7338 11.9558 31.6813C11.8509 31.6443 11.6718 31.6165 11.4187 31.598C11.3013 31.493 11.2535 31.2414 11.2751 30.8432C11.2936 30.8493 11.3477 30.8524 11.4372 30.8524C11.8941 30.8524 12.9021 30.766 14.4611 30.5931C14.671 31.3279 14.776 32.1444 14.776 33.0428C14.776 34.6975 14.4657 36.1393 13.8452 37.368C14.0675 37.2599 14.2913 37.2059 14.5167 37.2059C14.6957 37.2059 14.8485 37.2337 14.9751 37.2892V38.5257ZM23.3013 38.2478C23.1562 38.1459 22.92 38.095 22.5928 38.095C22.1976 38.095 21.7515 38.1598 21.2545 38.2895C20.7574 38.4192 20.3684 38.5704 20.0875 38.7433C20.1956 38.2247 20.2496 37.8789 20.2496 37.706C20.2496 37.6535 20.2403 37.6288 20.2218 37.6319C20.2095 37.635 20.1894 37.6474 20.1616 37.669C19.643 38.095 19.024 38.3543 18.3047 38.4469C17.962 38.4902 17.6718 38.5118 17.4341 38.5118C16.7302 38.5118 16.2254 38.362 15.9198 38.0626C15.645 37.794 15.5077 37.3819 15.5077 36.8262C15.5077 36.536 15.5354 36.2164 15.591 35.8676C15.7052 35.1761 15.9522 34.6049 16.3319 34.1542C16.7888 33.6201 17.3739 33.3531 18.087 33.3531C18.8588 33.3531 19.6105 33.7081 20.3422 34.4181C20.3422 34.2638 20.299 34.0461 20.2125 33.7652C20.1168 33.4657 20.0088 33.2219 19.8884 33.0335C21.4073 32.802 22.4569 32.5797 23.0373 32.3667C23.0929 32.5612 23.1207 32.7572 23.1207 32.9548C23.1207 33.1154 23.1022 33.2141 23.0651 33.2512C22.6113 33.4055 22.3844 33.5445 22.3844 33.668V33.6772C22.3844 33.7791 22.389 33.9396 22.3983 34.1588C22.4075 34.378 22.4122 34.5463 22.4122 34.6636C22.4122 35.6546 22.2856 36.4727 22.0324 37.1179C22.2362 36.9913 22.4785 36.928 22.7595 36.928C22.9077 36.928 23.045 36.945 23.1716 36.979L23.3013 38.2478ZM20.6108 35.6592C20.6108 35.5295 20.4811 35.4215 20.2218 35.335C19.947 35.2424 19.5889 35.1961 19.1475 35.1961C18.5702 35.1961 18.0145 35.3042 17.4804 35.5203C16.9617 35.7333 16.7024 35.9479 16.7024 36.164C16.7024 36.3368 16.8861 36.4758 17.2535 36.5807C17.5838 36.6733 17.9759 36.7197 18.4297 36.7197C18.9453 36.7197 19.4438 36.5962 19.9254 36.3492C20.3823 36.1115 20.6108 35.8815 20.6108 35.6592ZM30.2151 34.9183C30.2151 35.6283 29.6779 35.9834 28.6035 35.9834C28.0664 35.9834 27.6218 35.8877 27.2699 35.6962C26.9395 35.5172 26.7744 35.3057 26.7744 35.0618C26.7744 34.6759 26.9766 34.3718 27.381 34.1496C27.736 33.9551 28.1621 33.8578 28.6591 33.8578C28.69 33.8578 28.7054 33.8516 28.7054 33.8393C28.7054 33.793 28.5912 33.7328 28.3627 33.6587C28.0972 33.5692 27.824 33.5244 27.5431 33.5244C26.2959 33.5244 25.6723 34.0847 25.6723 35.2054C25.6723 35.3258 25.6815 35.4678 25.7 35.6314C25.7927 36.4125 25.9594 36.9496 26.2002 37.2429C26.3792 37.459 26.637 37.5671 26.9735 37.5671C27.4952 37.5671 27.9846 37.4637 28.4415 37.2568C28.849 37.0747 29.1747 36.8401 29.4186 36.5529C29.434 36.5499 29.4464 36.5591 29.4556 36.5807C29.1685 37.794 28.4538 38.4763 27.3116 38.6275C27.0244 38.6646 26.7312 38.6831 26.4317 38.6831C24.4281 38.6831 23.4263 37.7508 23.4263 35.8861C23.4263 34.9785 23.6733 34.307 24.1672 33.8717C24.6334 33.4611 25.3882 33.2033 26.4317 33.0984C26.6849 33.0737 26.9318 33.0613 27.1726 33.0613C28.0432 33.0613 28.7656 33.2157 29.3398 33.5244C29.8492 33.7992 30.1317 34.1249 30.1873 34.5015C30.2058 34.6312 30.2151 34.7701 30.2151 34.9183ZM36.9714 35.3582C36.9714 35.5156 36.9652 35.7009 36.9529 35.9139C36.9529 35.9509 36.9374 35.9648 36.9066 35.9556C36.3817 35.8383 35.522 35.6824 34.3272 35.4879C33.2652 35.3181 32.7095 35.2332 32.6601 35.2332C32.5891 35.2332 32.5536 35.5234 32.5536 36.1038C32.5536 36.8354 32.7142 37.3819 33.0352 37.7431C33.2791 38.0178 33.5925 38.1645 33.9753 38.183C34.1914 38.1922 34.3905 38.1598 34.5726 38.0857C34.6437 38.058 34.6792 38.0302 34.6792 38.0024C34.6792 37.9839 34.6606 37.9684 34.6236 37.9561C34.2192 37.882 33.8888 37.7323 33.6326 37.5069C33.3764 37.2784 33.2482 37.0068 33.2482 36.6919C33.2482 36.4943 33.3594 36.3353 33.5817 36.2149C33.807 36.0914 34.1127 36.0297 34.4986 36.0297C34.7641 36.0297 35.045 36.0574 35.3414 36.113C36.1379 36.2674 36.5361 36.5869 36.5361 37.0716C36.5361 37.2074 36.4991 37.3464 36.425 37.4884C36.2181 37.8774 35.9619 38.1552 35.6563 38.3219C35.2117 38.5627 34.5356 38.6831 33.628 38.6831C32.5845 38.6831 31.7509 38.2972 31.1273 37.5254C30.5932 36.8678 30.3262 36.1254 30.3262 35.298C30.3262 33.7698 31.575 33.0058 34.0725 33.0058C35.5204 33.0058 36.4111 33.3685 36.7445 34.094C36.8958 34.4243 36.9714 34.8457 36.9714 35.3582ZM35.1978 34.2931C35.1978 34.1202 35.0851 33.9798 34.8598 33.8717C34.6344 33.7606 34.3365 33.705 33.966 33.705C33.5338 33.705 33.1587 33.7451 32.8407 33.8254C32.4672 33.918 32.2804 34.0431 32.2804 34.2005C32.2804 34.5987 32.9179 34.7979 34.1929 34.7979C34.8628 34.7979 35.1978 34.6296 35.1978 34.2931Z" fill="#FBFBFB"/>
<path d="M49 42.22C49 48.4975 43.9111 53.5865 37.6336 53.5865H11.3664C5.08892 53.5865 0 48.4975 0 42.22H49Z" fill="#FBFBFB"/>
<ellipse cx="43.0726" cy="48.5921" rx="1.18548" ry="0.516656" transform="rotate(180 43.0726 48.5921)" fill="#1F1B1B"/>
<ellipse cx="30.4274" cy="47.2144" rx="1.18548" ry="0.516656" transform="rotate(180 30.4274 47.2144)" fill="#1F1B1B"/>
<ellipse cx="36.75" cy="49.9699" rx="1.18548" ry="0.516656" transform="rotate(180 36.75 49.9699)" fill="#1F1B1B"/>
<ellipse cx="32.7984" cy="52.3809" rx="1.18548" ry="0.516656" transform="rotate(180 32.7984 52.3809)" fill="#1F1B1B"/>
<ellipse cx="27.2661" cy="49.9699" rx="1.18548" ry="0.516656" transform="rotate(180 27.2661 49.9699)" fill="#1F1B1B"/>
<ellipse cx="21.7339" cy="47.5588" rx="1.18548" ry="0.516656" transform="rotate(180 21.7339 47.5588)" fill="#1F1B1B"/>
<ellipse cx="25.6855" cy="44.8033" rx="1.18548" ry="0.516656" transform="rotate(180 25.6855 44.8033)" fill="#1F1B1B"/>
<ellipse cx="12.25" cy="45.4922" rx="1.18548" ry="0.516656" transform="rotate(180 12.25 45.4922)" fill="#1F1B1B"/>
<ellipse cx="3.55646" cy="45.4922" rx="1.18548" ry="0.516656" transform="rotate(180 3.55646 45.4922)" fill="#1F1B1B"/>
<ellipse cx="7.50806" cy="47.9032" rx="1.18548" ry="0.516656" transform="rotate(180 7.50806 47.9032)" fill="#1F1B1B"/>
<ellipse cx="11.4597" cy="50.3143" rx="1.18548" ry="0.516656" transform="rotate(180 11.4597 50.3143)" fill="#1F1B1B"/>
<ellipse cx="20.9435" cy="52.7254" rx="1.18548" ry="0.516656" transform="rotate(180 20.9435 52.7254)" fill="#1F1B1B"/>
<ellipse cx="20.9435" cy="50.3143" rx="1.18548" ry="0.516656" transform="rotate(180 20.9435 50.3143)" fill="#1F1B1B"/>
<ellipse cx="14.621" cy="47.9032" rx="1.18548" ry="0.516656" transform="rotate(180 14.621 47.9032)" fill="#1F1B1B"/>
<ellipse cx="39.121" cy="45.8366" rx="1.18548" ry="0.516656" transform="rotate(180 39.121 45.8366)" fill="#1F1B1B"/>
<ellipse cx="47.8145" cy="44.1144" rx="1.18548" ry="0.516656" transform="rotate(180 47.8145 44.1144)" fill="#1F1B1B"/>
<ellipse cx="34.379" cy="43.77" rx="1.18548" ry="0.516656" transform="rotate(180 34.379 43.77)" fill="#1F1B1B"/>
<ellipse cx="20.9435" cy="43.4255" rx="1.18548" ry="0.516656" transform="rotate(180 20.9435 43.4255)" fill="#1F1B1B"/>
<ellipse cx="7.50806" cy="43.0811" rx="1.18548" ry="0.516656" transform="rotate(180 7.50806 43.0811)" fill="#1F1B1B"/>
</svg>
