<svg width="25" height="24" viewBox="0 0 25 24" fill="none" xmlns="http://www.w3.org/2000/svg">
<path d="M10.3663 3.27141C11.171 1.5762 13.496 1.5762 14.3007 3.27141L15.6914 6.20118C16.0109 6.87435 16.6286 7.34094 17.3431 7.44888L20.4528 7.91869C22.2522 8.19053 22.9706 10.4895 21.6686 11.8091L19.4184 14.0896C18.9014 14.6136 18.6655 15.3685 18.7875 16.1084L19.3187 19.3285C19.6261 21.1918 17.7451 22.6126 16.1357 21.7329L13.3543 20.2126C12.7152 19.8633 11.9518 19.8633 11.3127 20.2126L8.53126 21.7329C6.92189 22.6126 5.04092 21.1918 5.34828 19.3286L5.87948 16.1084C6.00154 15.3685 5.76561 14.6136 5.24858 14.0896L2.99837 11.8091C1.69636 10.4895 2.41482 8.19053 4.21416 7.91869L7.32387 7.44888C8.03839 7.34094 8.65606 6.87435 8.9756 6.20118L10.3663 3.27141Z" fill="#FCDB0A"/>
</svg>
